<svg width="226.77700000000002" height="226.77700000000002" xmlns="http://www.w3.org/2000/svg" xmlns:svg="http://www.w3.org/2000/svg" enable-background="new 0 0 226.777 226.777" version="1.1" xml:space="preserve">
 <g class="layer">
  <title>Layer 1</title>
  <g id="svg_1">
   <rect fill="#21de9f" height="19.93" id="svg_2" transform="matrix(0.7071 0.7071 -0.7071 0.7071 28.278 -24.861)" width="19.93" x="34.18" y="11.74"/>
   <polygon fill="#21de9f" id="svg_3" points="127.936,15.984 113.845,1.891 62.042,53.692 76.141,67.783  "/>
   <polygon fill="#21de9f" id="svg_4" points="106.958,98.595 191.458,14.095 177.369,0 92.856,84.509  "/>
   <rect fill="#21de9f" height="19.93" id="svg_5" transform="matrix(-0.7071 0.7071 -0.7071 -0.7071 381.0646 -70.1508)" width="19.93" x="195.09" y="33.88"/>
   <polygon fill="#21de9f" id="svg_6" points="158.983,75.832 210.783,127.63 224.878,113.539 173.074,61.734  "/>
   <polygon fill="#21de9f" id="svg_7" points="142.258,92.549 128.171,106.649 212.671,191.151 226.766,177.06  "/>
   <rect fill="#21de9f" height="19.93" id="svg_8" transform="matrix(-0.7072 -0.7071 0.7071 -0.7072 167.5072 478.8843)" width="19.93" x="172.96" y="194.79"/>
   <polygon fill="#21de9f" id="svg_9" points="99.137,210.476 113.229,224.569 165.031,172.767 150.933,158.677  "/>
   <polygon fill="#21de9f" id="svg_10" points="120.117,127.865 35.616,212.364 49.707,226.46 134.217,141.951  "/>
   <rect fill="#21de9f" height="19.93" id="svg_11" transform="matrix(0.707 -0.7072 0.7072 0.707 -122.6947 69.0672)" width="19.93" x="12.05" y="172.65"/>
   <polygon fill="#21de9f" id="svg_12" points="68.09,150.627 16.293,98.829 2.198,112.921 54.001,164.726  "/>
   <polygon fill="#21de9f" id="svg_13" points="98.904,119.81 14.402,35.31 0.307,49.401 84.816,133.91  "/>
  </g>
 </g>
</svg>