<svg width="226.77700000000002" height="226.77700000000002" xmlns="http://www.w3.org/2000/svg" xmlns:svg="http://www.w3.org/2000/svg" enable-background="new 0 0 226.777 226.777" version="1.1" xml:space="preserve">
 <g class="layer">
  <title>Layer 1</title>
  <path d="m113.37,0c-62.61,0 -113.37,50.76 -113.37,113.37c0,62.61 50.76,113.36 113.37,113.36c62.61,0 113.37,-50.75 113.37,-113.36c-0.01,-62.61 -50.76,-113.37 -113.37,-113.37zm58.07,75.95l-7.75,7.75l-7.75,-7.75l7.75,-7.75l7.75,7.75zm3.15,38.33l-7.75,7.75l-28.48,-28.49l7.74,-7.75l28.49,28.49zm-18.38,-54.68l-46.46,46.46l-7.75,-7.74l46.46,-46.47l7.75,7.75zm-42.68,-6.71l7.75,7.75l-28.47,28.48l-7.76,-7.75l28.48,-28.48zm-38.31,3.14l7.75,7.75l-7.75,7.75l-7.75,-7.75l7.75,-7.75zm-16.36,15.24l46.46,46.45l-7.75,7.76l-46.46,-46.47l7.75,-7.74zm1.04,34.92l28.48,28.48l-7.75,7.75l-28.48,-28.48l7.75,-7.75zm-4.61,46.07l7.75,-7.75l7.75,7.75l-7.75,7.75l-7.75,-7.75zm15.23,16.36l46.47,-46.46l7.75,7.74l-46.47,46.47l-7.75,-7.75zm42.68,6.71l-7.75,-7.75l28.48,-28.48l7.75,7.74l-28.48,28.49zm38.32,-3.15l-7.75,-7.75l7.75,-7.75l7.75,7.75l-7.75,7.75zm16.36,-15.23l-46.47,-46.46l7.75,-7.75l46.47,46.46l-7.75,7.75z" fill="#21de9f" id="svg_1"/>
 </g>
</svg>